<?xml version="1.0" encoding="UTF-8"?><svg id="katman_2" xmlns="http://www.w3.org/2000/svg" viewBox="0 0 459.91 128.39"><defs><style>.cls-1,.cls-2,.cls-3,.cls-4{stroke-width:0px;}.cls-2{fill:#404042;}.cls-3{fill:#0081ff;}.cls-4{fill:#001fff;}</style></defs><g id="Layer_1"><path class="cls-1" d="m361.64,86.94h0s9.59-6.79,9.59-6.79l-9.59,6.79Z"/><path class="cls-3" d="m409.16,0v13.22c-17.44,0-27.08,5.06-39.18,12.29v48.51l-10.55,7.48c-.65-2.16-1.02-4.3-1.02-6.4V17.32l2.8-1.69c13.94-8.39,25.97-15.63,47.94-15.63Z"/><path class="cls-4" d="m459.91,40.86v34.23c0,11.38-10.66,23.93-19.61,32.45-10.01,9.54-22.08,17.87-29.34,20.25l-1.81.59v-12.3c5.29-2.39,14.45-8.61,23.17-16.92,9.87-9.41,16.01-18.63,16.01-24.07v-26.03l11.57-8.2Z"/><path class="cls-4" d="m459.91,17.32v16.52l-11.57,8.2-27.52,19.51,21.41,15.17c-.79,2.38-3.05,6.35-7.3,11.35l-25.77-18.26h0v-16.52l39.19-27.77c-12.1-7.23-21.75-12.29-39.19-12.29V0c21.98,0,34.01,7.25,47.95,15.63l2.8,1.69Z"/><path class="cls-3" d="m409.16,53.27v16.53l-30.5,21.61c2.12,2.52,4.58,5.12,7.34,7.75,8.72,8.31,17.88,14.53,23.17,16.92v12.3l-1.8-.59c-7.26-2.38-19.33-10.71-29.35-20.25-5.89-5.61-12.52-12.97-16.37-20.6l9.59-6.8,26.26-18.61-21.74-15.41v-16.52l33.39,23.65Z"/><path class="cls-2" d="m0,11.68h27.42c17.25,0,22.71,3.07,22.71,16.63v49.19c0,13.56-5.46,16.75-22.71,16.75H0V11.68Zm14.89,10.03l-.15,62.51h12.68c4.72,0,7.96-.59,7.96-6.13V27.37c0-5.43-3.24-5.66-7.96-5.66h-12.53Z"/><path class="cls-2" d="m92.89,27.25c16.81,0,20.94,4.13,20.94,15.1v23.12l-32.29.24v13.68c0,4.95,2.65,5.78,6.93,5.78h5.16c4.28,0,6.93-.83,6.93-5.78v-6.13h13.27v6.25c0,10.85-3.98,15.1-20.94,15.1h-4.42c-16.96,0-20.94-4.25-20.94-15.1v-37.16c0-10.97,3.98-15.1,20.94-15.1h4.42Zm-11.35,15.22v13.68h18.28v-13.68c0-4.84-2.65-5.78-6.93-5.78h-4.42c-4.28,0-6.93.94-6.93,5.78Z"/><path class="cls-2" d="m159.53,37.04h-11.65v57.21h-14.01v-57.21h-6.04v-9.44h6.04v-4.13c0-10.85,3.98-12.97,17.99-12.97,2.95,0,8.11.59,8.11.59v8.85h-8.11c-3.39,0-3.98,1.65-3.98,3.77v3.89h11.65v9.44Z"/><path class="cls-2" d="m198.75,27.25c16.81,0,20.94,4.13,20.94,15.1v23.12l-32.29.24v13.68c0,4.95,2.65,5.78,6.93,5.78h5.16c4.28,0,6.93-.83,6.93-5.78v-6.13h13.27v6.25c0,10.85-3.98,15.1-20.94,15.1h-4.42c-16.96,0-20.94-4.25-20.94-15.1v-37.16c0-10.97,3.98-15.1,20.94-15.1h4.42Zm-11.35,15.22v13.68h18.28v-13.68c0-4.84-2.65-5.78-6.93-5.78h-4.42c-4.28,0-6.93.94-6.93,5.78Z"/><path class="cls-2" d="m268.64,42.23c0-3.18-2.06-5.19-5.9-5.19h-12.83v57.21h-14.01V27.6s14.01-.35,24.77-.35h4.57c10.76,0,17.4,3.42,17.4,13.21v53.79h-14.01v-52.02Z"/><path class="cls-2" d="m321.13,27.25c16.81,0,20.2,4.13,20.2,15.1v5.31h-13.27v-5.9c0-4.84-2.65-5.07-6.93-5.07h-1.47c-4.28,0-6.93.24-6.93,5.07v5.31c0,3.77,2.51,4.25,7.67,6.13l9.88,3.07c7.23,2.24,12.53,4.6,12.53,13.09v9.55c0,10.97-3.98,15.57-20.94,15.57h-2.21c-16.96,0-20.94-4.13-20.94-15.1v-6.13h14.01v6.61c0,4.84,2.65,5.19,6.93,5.19h2.21c4.28,0,6.93-.83,6.93-5.66v-8.14c0-4.84-3.69-5.54-7.81-6.96l-9.73-3.19c-6.63-2.12-12.53-3.77-12.53-12.97v-5.78c0-10.97,3.98-15.1,20.94-15.1h1.47Z"/></g></svg>