<svg width="32" height="21" viewBox="0 0 32 21" fill="none" xmlns="http://www.w3.org/2000/svg">
<path d="M1.77778 21C1.27407 21 0.851852 20.8323 0.511111 20.4969C0.17037 20.1615 0 19.7458 0 19.25C0 18.7542 0.17037 18.3385 0.511111 18.0031C0.851852 17.6677 1.27407 17.5 1.77778 17.5H30.2222C30.7259 17.5 31.1481 17.6677 31.4889 18.0031C31.8296 18.3385 32 18.7542 32 19.25C32 19.7458 31.8296 20.1615 31.4889 20.4969C31.1481 20.8323 30.7259 21 30.2222 21H1.77778ZM1.77778 12.25C1.27407 12.25 0.851852 12.0823 0.511111 11.7469C0.17037 11.4115 0 10.9958 0 10.5C0 10.0042 0.17037 9.58854 0.511111 9.25313C0.851852 8.91771 1.27407 8.75 1.77778 8.75H30.2222C30.7259 8.75 31.1481 8.91771 31.4889 9.25313C31.8296 9.58854 32 10.0042 32 10.5C32 10.9958 31.8296 11.4115 31.4889 11.7469C31.1481 12.0823 30.7259 12.25 30.2222 12.25H1.77778ZM1.77778 3.5C1.27407 3.5 0.851852 3.33229 0.511111 2.99688C0.17037 2.66146 0 2.24583 0 1.75C0 1.25417 0.17037 0.838542 0.511111 0.503125C0.851852 0.167708 1.27407 0 1.77778 0H30.2222C30.7259 0 31.1481 0.167708 31.4889 0.503125C31.8296 0.838542 32 1.25417 32 1.75C32 2.24583 31.8296 2.66146 31.4889 2.99688C31.1481 3.33229 30.7259 3.5 30.2222 3.5H1.77778Z" fill="#5D27F0"/>
</svg>
