<svg width="73" height="36" viewBox="0 0 73 36" fill="none" xmlns="http://www.w3.org/2000/svg">
<path d="M32.917 35.9167H18.5837C13.6267 35.9167 9.40137 34.1698 5.90762 30.6761C2.41387 27.1823 0.666992 22.957 0.666992 18C0.666992 13.0431 2.41387 8.81775 5.90762 5.324C9.40137 1.83025 13.6267 0.083374 18.5837 0.083374H32.917V7.25004H18.5837C15.5975 7.25004 13.0594 8.29518 10.9691 10.3855C8.8788 12.4757 7.83366 15.0139 7.83366 18C7.83366 20.9862 8.8788 23.5243 10.9691 25.6146C13.0594 27.7049 15.5975 28.75 18.5837 28.75H32.917V35.9167ZM22.167 21.5834V14.4167H50.8337V21.5834H22.167ZM40.0837 35.9167V28.75H54.417C57.4031 28.75 59.9413 27.7049 62.0316 25.6146C64.1218 23.5243 65.167 20.9862 65.167 18C65.167 15.0139 64.1218 12.4757 62.0316 10.3855C59.9413 8.29518 57.4031 7.25004 54.417 7.25004H40.0837V0.083374H54.417C59.3739 0.083374 63.5993 1.83025 67.093 5.324C70.5868 8.81775 72.3337 13.0431 72.3337 18C72.3337 22.957 70.5868 27.1823 67.093 30.6761C63.5993 34.1698 59.3739 35.9167 54.417 35.9167H40.0837Z" fill="white"/>
</svg>
