<svg width="69" height="69" viewBox="0 0 69 69" fill="none" xmlns="http://www.w3.org/2000/svg">
<path d="M0.25 57.6667V47.6334C0.25 45.6028 0.772569 43.7365 1.81771 42.0344C2.86285 40.3323 4.25139 39.0334 5.98333 38.1375C9.68611 36.2862 13.4486 34.8976 17.2708 33.9719C21.0931 33.0462 24.975 32.5834 28.9167 32.5834C30.1111 32.5834 31.3056 32.6282 32.5 32.7178C33.6944 32.8073 34.8889 32.9417 36.0833 33.1209C35.8444 36.5848 36.4715 39.8546 37.9646 42.9303C39.4576 46.0059 41.6375 48.5292 44.5042 50.5V57.6667H0.25ZM57.5833 68.4167L52.2083 63.0417V46.3792C49.5806 45.6028 47.4306 44.1247 45.7583 41.9448C44.0861 39.765 43.25 37.2417 43.25 34.375C43.25 30.9112 44.4743 27.9549 46.9229 25.5063C49.3715 23.0577 52.3278 21.8334 55.7917 21.8334C59.2556 21.8334 62.2118 23.0577 64.6604 25.5063C67.109 27.9549 68.3333 30.9112 68.3333 34.375C68.3333 37.0625 67.5719 39.4514 66.049 41.5417C64.526 43.632 62.6 45.125 60.2708 46.0209L64.75 50.5L59.375 55.875L64.75 61.25L57.5833 68.4167ZM28.9167 29C24.975 29 21.6007 27.5966 18.7938 24.7896C15.9868 21.9827 14.5833 18.6084 14.5833 14.6667C14.5833 10.725 15.9868 7.35074 18.7938 4.54379C21.6007 1.73685 24.975 0.333374 28.9167 0.333374C32.8583 0.333374 36.2326 1.73685 39.0396 4.54379C41.8465 7.35074 43.25 10.725 43.25 14.6667C43.25 18.6084 41.8465 21.9827 39.0396 24.7896C36.2326 27.5966 32.8583 29 28.9167 29ZM55.7917 36.1667C56.8069 36.1667 57.658 35.8233 58.3448 35.1365C59.0316 34.4497 59.375 33.5987 59.375 32.5834C59.375 31.5681 59.0316 30.7171 58.3448 30.0303C57.658 29.3434 56.8069 29 55.7917 29C54.7764 29 53.9254 29.3434 53.2385 30.0303C52.5517 30.7171 52.2083 31.5681 52.2083 32.5834C52.2083 33.5987 52.5517 34.4497 53.2385 35.1365C53.9254 35.8233 54.7764 36.1667 55.7917 36.1667Z" fill="white"/>
</svg>
