<svg width="51" height="69" viewBox="0 0 51 69" fill="none" xmlns="http://www.w3.org/2000/svg">
<path d="M21.917 68.25C15.9448 68.25 10.8684 66.1597 6.68783 61.9792C2.50727 57.7986 0.416992 52.7222 0.416992 46.75V25.25L18.3337 43.1667L13.317 48.2729L7.58366 42.5396V46.75C7.58366 50.6917 8.98713 54.066 11.7941 56.8729C14.601 59.6799 17.9753 61.0834 21.917 61.0834C25.8587 61.0834 29.233 59.6799 32.0399 56.8729C34.8469 54.066 36.2503 50.6917 36.2503 46.75V35.3729C34.1003 34.5368 32.3684 33.208 31.0545 31.3865C29.7406 29.5649 29.0837 27.5195 29.0837 25.25C29.0837 22.9806 29.7406 20.9351 31.0545 19.1136C32.3684 17.292 34.1003 15.9632 36.2503 15.1271V0.166687H43.417V15.1271C45.567 15.9632 47.2989 17.292 48.6128 19.1136C49.9267 20.9351 50.5837 22.9806 50.5837 25.25C50.5837 27.5195 49.9267 29.5799 48.6128 31.4313C47.2989 33.2827 45.567 34.5965 43.417 35.3729V46.75C43.417 52.7222 41.3267 57.7986 37.1462 61.9792C32.9656 66.1597 27.8892 68.25 21.917 68.25ZM39.8337 28.8334C40.8489 28.8334 41.7 28.49 42.3868 27.8031C43.0736 27.1163 43.417 26.2653 43.417 25.25C43.417 24.2347 43.0736 23.3837 42.3868 22.6969C41.7 22.0101 40.8489 21.6667 39.8337 21.6667C38.8184 21.6667 37.9673 22.0101 37.2805 22.6969C36.5937 23.3837 36.2503 24.2347 36.2503 25.25C36.2503 26.2653 36.5937 27.1163 37.2805 27.8031C37.9673 28.49 38.8184 28.8334 39.8337 28.8334Z" fill="white"/>
</svg>
