<svg width="59" height="72" viewBox="0 0 59 72" fill="none" xmlns="http://www.w3.org/2000/svg">
<path d="M25.7372 48.7209L45.983 28.475L40.8768 23.3688L25.7372 38.5084L18.2122 30.9834L13.1059 36.0896L25.7372 48.7209ZM29.4997 71.8334C21.1983 69.7431 14.3452 64.9802 8.9403 57.5448C3.53544 50.1094 0.833008 41.8528 0.833008 32.775V10.9167L29.4997 0.166687L58.1663 10.9167V32.775C58.1663 41.8528 55.4639 50.1094 50.0591 57.5448C44.6542 64.9802 37.8011 69.7431 29.4997 71.8334ZM29.4997 64.3083C35.7108 62.3375 40.8469 58.3959 44.908 52.4834C48.9691 46.5709 50.9997 40.0014 50.9997 32.775V15.8438L29.4997 7.78127L7.99967 15.8438V32.775C7.99967 40.0014 10.0302 46.5709 14.0913 52.4834C18.1525 58.3959 23.2886 62.3375 29.4997 64.3083Z" fill="white"/>
</svg>
