<svg width="540" height="407" viewBox="0 0 540 407" fill="none" xmlns="http://www.w3.org/2000/svg">
<g clip-path="url(#clip0_418_84821)">
<path d="M244.75 384.412C155.046 377.124 83.8786 303.863 79.2804 212.917" stroke="#EBE9F8" stroke-width="12.4836" stroke-miterlimit="10" stroke-linecap="round"/>
<path d="M95.4101 221.291L97.0456 219.562L95.3152 217.928L80.5841 204.018L78.7256 202.263L77.1093 204.243L64.3084 219.928L62.8102 221.764L64.6406 223.268L67.2585 225.42L69.1022 226.936L70.611 225.087L79.5086 214.181L89.7184 223.846L91.4459 225.482L93.0806 223.753L95.4101 221.291Z" fill="#EBE9F8" stroke="#EBE9F8" stroke-width="4.75575"/>
<path d="M79.6902 188.033C87.2468 98.2565 159.777 27.1019 249.813 22.3323" stroke="#EBE9F8" stroke-width="12.4836" stroke-miterlimit="10" stroke-linecap="round"/>
<path d="M239.219 37.9382L240.949 39.5732L242.583 37.8428L256.922 22.6579L258.681 20.7948L256.692 19.1789L240.478 6.0065L238.633 4.50779L237.133 6.35151L234.938 9.05003L233.436 10.896L235.283 12.3968L246.605 21.5989L236.608 32.1996L234.978 33.9278L236.704 35.5598L239.219 37.9382Z" fill="#EBE9F8" stroke="#EBE9F8" stroke-width="4.75694"/>
<rect x="0.298584" y="37.1709" width="538.1" height="337.47" rx="10.2887" fill="url(#paint0_linear_418_84821)"/>
<path d="M0.298584 47.4596C0.298584 41.7773 4.905 37.1709 10.5873 37.1709H528.11C533.792 37.1709 538.399 41.7773 538.399 47.4596V67.0082H0.298584V47.4596Z" fill="#BDA8D3"/>
<path d="M51.8893 53.1248C51.8893 55.4825 49.9789 57.3946 47.6225 57.3946C45.2661 57.3946 43.3556 55.4825 43.3556 53.1248C43.3556 50.7671 45.2661 48.855 47.6225 48.855C49.9789 48.855 51.8893 50.7671 51.8893 53.1248Z" fill="white"/>
<path d="M35.5345 57.3946C37.891 57.3946 39.8013 55.483 39.8013 53.1248C39.8013 50.7667 37.891 48.855 35.5345 48.855C33.1779 48.855 31.2676 50.7667 31.2676 53.1248C31.2676 55.483 33.1779 57.3946 35.5345 57.3946Z" fill="white"/>
<path d="M23.4467 57.3946C25.8032 57.3946 27.7136 55.483 27.7136 53.1248C27.7136 50.7667 25.8032 48.855 23.4467 48.855C21.0902 48.855 19.1798 50.7667 19.1798 53.1248C19.1798 55.483 21.0902 57.3946 23.4467 57.3946Z" fill="white"/>
<path d="M89.8683 53.4723L85.9788 57.3629C85.8838 57.461 85.7571 57.5061 85.6331 57.5061C85.5091 57.5061 85.3798 57.4584 85.2874 57.3629C85.0948 57.1693 85.0948 56.859 85.2874 56.6654L88.826 53.1249L85.2874 49.5844C85.0948 49.3908 85.0948 49.0805 85.2874 48.8869C85.4774 48.6959 85.7914 48.6959 85.9814 48.8869L89.8709 52.7774C90.0609 52.9684 90.0609 53.2813 89.8709 53.4723H89.8683Z" fill="white"/>
<path d="M67.4394 53.4721L71.329 57.3626C71.424 57.4608 71.5506 57.5058 71.6747 57.5058C71.7987 57.5058 71.928 57.4581 72.0203 57.3626C72.213 57.169 72.213 56.8587 72.0203 56.6651L68.4818 53.1246L72.0203 49.5841C72.213 49.3905 72.213 49.0802 72.0203 48.8866C71.8303 48.6957 71.5163 48.6957 71.3263 48.8866L67.4368 52.7772C67.2468 52.9682 67.2468 53.2811 67.4368 53.4721H67.4394Z" fill="white"/>
<path d="M105.723 57.5061C107.024 57.5061 108.246 56.9332 109.085 55.9334C109.246 55.7424 109.219 55.456 109.029 55.2969C108.839 55.1378 108.554 55.1643 108.393 55.3526C107.729 56.1455 106.757 56.6017 105.726 56.6017C104.797 56.6017 103.923 56.241 103.266 55.5833C102.609 54.9256 102.248 54.0531 102.248 53.1222C102.248 51.2047 103.807 49.6427 105.726 49.6427C106.56 49.6427 107.351 49.9424 107.974 50.4754L107.441 51.0085L109.499 51.3533L109.116 49.3297L108.612 49.8363C107.818 49.1361 106.802 48.741 105.726 48.741C104.517 48.741 103.422 49.2316 102.63 50.0272C101.839 50.8228 101.345 51.9155 101.345 53.1248C101.345 54.2944 101.802 55.395 102.628 56.2225C103.456 57.0499 104.554 57.5061 105.726 57.5061H105.723Z" fill="white"/>
<path d="M452.322 46.3438H130.01C126.283 46.3438 123.263 49.3793 123.263 53.1238C123.263 56.8683 126.283 59.9038 130.01 59.9038H452.322C456.048 59.9038 459.069 56.8683 459.069 53.1238C459.069 49.3793 456.048 46.3438 452.322 46.3438Z" fill="white"/>
<path d="M136.633 56.6257L133.979 53.9657C134.921 52.7298 134.831 50.9556 133.702 49.8284C132.475 48.5979 130.475 48.5979 129.248 49.8284C128.015 51.0563 128.015 53.056 129.248 54.2839C130.374 55.4137 132.148 55.5039 133.383 54.5624L136.042 57.2198C136.206 57.3868 136.47 57.3868 136.636 57.2198C136.805 57.0553 136.805 56.7901 136.636 56.6283L136.633 56.6257ZM133.108 53.6925C132.206 54.5916 130.738 54.5916 129.839 53.6925C128.939 52.7881 128.939 51.3216 129.839 50.4225C130.738 49.5234 132.203 49.5234 133.108 50.4225C134.008 51.3216 134.008 52.7881 133.108 53.6925Z" fill="#E0E0E0"/>
<path d="M481.481 51.8276H478.655V52.3925H481.199V56.5563H474.982V52.3925H477.526V51.8276H474.7C474.544 51.8276 474.417 51.9549 474.417 52.1114V56.84C474.417 56.9992 474.544 57.1238 474.7 57.1238H481.481C481.64 57.1238 481.764 56.9992 481.764 56.84V52.1114C481.764 51.9549 481.64 51.8276 481.481 51.8276Z" fill="white"/>
<path d="M479.422 51.0239H478.372V53.8457C478.372 54.0022 478.248 54.1295 478.09 54.1295C477.931 54.1295 477.807 54.0022 477.807 53.8457V51.0239H476.76L478.09 49.1277L479.422 51.0239Z" fill="white"/>
<path d="M493.273 51.6262H488.278C488.14 51.6262 488.03 51.7376 488.03 51.8755V56.8747C488.03 57.0126 488.14 57.124 488.278 57.124H493.273C493.413 57.124 493.521 57.0126 493.521 56.8747V51.8755C493.521 51.7376 493.413 51.6262 493.273 51.6262ZM493.025 56.6254H488.526V52.1248H493.025V56.6254Z" fill="white"/>
<path d="M495.773 49.1255H490.778C490.638 49.1255 490.53 49.2369 490.53 49.3748V51.3771H491.028V49.6241H495.528V54.1246H493.775V54.6232H495.778C495.915 54.6232 496.026 54.5145 496.026 54.3739V49.3748C496.026 49.2369 495.915 49.1255 495.778 49.1255H495.773Z" fill="white"/>
</g>
<g clip-path="url(#clip1_418_84821)">
<path d="M439.229 219.291C431.628 308.243 360.217 378.862 271.244 384.624" stroke="#EBE9F8" stroke-width="12.4836" stroke-miterlimit="10" stroke-linecap="round"/>
<path d="M276.888 368.018L275.14 366.411L273.53 368.156L259.413 383.459L257.677 385.341L259.682 386.933L275.988 399.887L277.846 401.363L279.326 399.509L281.493 396.795L282.98 394.931L281.113 393.448L269.731 384.413L279.581 373.73L281.195 371.979L279.442 370.367L276.888 368.018Z" fill="#EBE9F8" stroke="#EBE9F8" stroke-width="4.75658"/>
<path d="M272.528 22.5442C365.479 29.2306 439.161 103.617 440.103 198.586" stroke="#EBE9F8" stroke-width="12.4836" stroke-miterlimit="10" stroke-linecap="round"/>
<path d="M424.586 188.384L422.893 190.047L424.551 191.744L438.423 205.942L440.21 207.772L441.905 205.855L455.059 190.984L456.642 189.195L454.846 187.62L452.368 185.446L450.587 183.883L449.017 185.658L439.929 195.937L430.325 186.094L428.659 184.387L426.956 186.058L424.586 188.384Z" fill="#EBE9F8" stroke="#EBE9F8" stroke-width="4.75715"/>
<path d="M224.454 167.695V139.211C224.454 119.822 240.221 103.948 259.516 103.948H260.956C280.251 103.948 296.017 119.822 296.017 139.211V167.695" stroke="white" stroke-width="17.7711" stroke-miterlimit="10" stroke-linecap="round"/>
<path d="M309.284 167.695H211.206C204.565 167.695 199.182 173.11 199.182 179.789V278.433C199.182 285.112 204.565 290.526 211.206 290.526H309.284C315.924 290.526 321.308 285.112 321.308 278.433V179.789C321.308 173.11 315.924 167.695 309.284 167.695Z" fill="white"/>
<path d="M276.757 244.168C276.989 244.035 279.506 240.437 279.804 239.921C280.202 239.254 281.113 237.722 280.798 237.122L268.675 228.344L268.046 227.311C275.945 221.481 283.912 215.534 292.176 210.321V198.761C284.011 194.48 276.889 190.215 268.393 188.7C265.826 188.25 263.127 188.033 260.245 188.15V196.912C265.147 196.978 270.099 197.794 274.306 199.31C276.525 200.11 281.891 202.442 283.647 203.741C283.978 203.991 284.475 204.157 284.326 204.724L260.245 221.431V233.474C263.458 234.557 275.631 244.835 276.774 244.152L276.757 244.168Z" fill="#001FFF"/>
<path d="M285.451 218.716L284.905 219.532C284.176 224.996 285.269 231.092 284.723 236.489C283.911 244.418 269.204 257.261 262.414 260.942C261.387 261.492 260.758 261.825 260.228 261.942V270.104C260.526 270.104 260.824 270.104 261.073 270.037C267.167 268.355 280.235 257.194 284.541 252.164C286.18 250.248 292.258 241.453 292.258 239.404V214.535L285.468 218.699L285.451 218.716Z" fill="#001FFF"/>
<path d="M260.128 188.151C254.298 188.4 247.972 189.433 242.49 191.499C237.439 193.414 232.785 196.613 228.214 199.511L228.429 239.205C231.145 239.005 232.934 236.907 235.103 235.574C235.7 226.129 234.292 215.702 235.087 206.39C235.153 205.558 235.087 204.691 235.816 204.092C237.985 202.293 245.471 199.228 248.353 198.378C251.963 197.312 256.087 196.862 260.227 196.912V188.151C260.227 188.151 260.161 188.151 260.128 188.151Z" fill="#3D82F6"/>
<path d="M256.817 260.709C253.389 258.811 243.336 250.399 241.564 247.15C241.365 246.801 241.2 246.318 241.399 245.951L259.898 233.392C259.981 233.392 260.113 233.458 260.213 233.491V221.448L259.898 221.665L238.831 207.873V216.851C238.831 217.167 239.626 217.967 239.941 218.25C242.69 220.865 249.464 223.864 251.634 226.379C251.948 226.745 252.147 227.178 252.147 227.661L230.286 242.953C229.11 243.786 230.137 245.185 230.683 246.151C234.31 252.547 245.39 262.309 251.65 266.306C253.538 267.506 257.695 270.054 260.229 270.121V261.959C259.269 262.175 258.656 261.742 256.817 260.726V260.709Z" fill="#3D82F6"/>
</g>
<defs>
<linearGradient id="paint0_linear_418_84821" x1="-91.3849" y1="-54.4294" x2="601.543" y2="432.606" gradientUnits="userSpaceOnUse">
<stop offset="0.069679" stop-color="#EBE9F8"/>
<stop offset="0.531059" stop-color="#F9E8E6"/>
<stop offset="1" stop-color="#C08DF5"/>
</linearGradient>
<clipPath id="clip0_418_84821">
<rect width="539.123" height="406.924" fill="white" transform="translate(0.298584)"/>
</clipPath>
<clipPath id="clip1_418_84821">
<rect x="5.00037" y="2.77466" width="529.72" height="401.375" rx="10.2887" fill="white"/>
</clipPath>
</defs>
</svg>
