<svg width="355" height="280" viewBox="0 0 355 280" fill="none" xmlns="http://www.w3.org/2000/svg">
<path d="M165.845 265.508C103.335 260.458 53.7414 209.699 50.5371 146.687" stroke="#EBE9F8" stroke-width="8.10725" stroke-miterlimit="10" stroke-linecap="round"/>
<path d="M61.6954 151.373L62.7575 150.25L61.6337 149.189L51.3683 139.495L50.1613 138.355L49.1117 139.642L40.1913 150.572L39.2183 151.764L40.4071 152.741L42.2313 154.241L43.4287 155.225L44.4085 154.024L50.6856 146.33L57.8885 153.149L59.0104 154.211L60.0721 153.089L61.6954 151.373Z" fill="#EBE9F8" stroke="#EBE9F8" stroke-width="3.08853"/>
<path d="M50.8232 129.445C56.0891 67.2436 106.632 17.9438 169.374 14.6392" stroke="#EBE9F8" stroke-width="8.10725" stroke-miterlimit="10" stroke-linecap="round"/>
<path d="M162.069 26.3807L163.193 27.4425L164.254 26.3188L174.246 15.7371L175.388 14.5271L174.097 13.4777L162.798 4.29844L161.6 3.32513L160.626 4.5225L159.096 6.40298L158.12 7.60179L159.32 8.57649L167.304 15.0656L160.254 22.5411L159.195 23.6634L160.316 24.7233L162.069 26.3807Z" fill="#EBE9F8" stroke="#EBE9F8" stroke-width="3.0893"/>
<rect x="1.79102" y="25.75" width="349.459" height="219.164" rx="6.68182" fill="url(#paint0_linear_418_129422)"/>
<path d="M1.79102 32.4318C1.79102 28.7416 4.78257 25.75 8.47283 25.75H344.568C348.259 25.75 351.25 28.7416 351.25 32.4318V45.1273H1.79102V32.4318Z" fill="#5D0EF5"/>
<path d="M31.4507 35.9738C31.4507 37.6073 30.1194 38.9321 28.4773 38.9321C26.8352 38.9321 25.5039 37.6073 25.5039 35.9738C25.5039 34.3402 26.8352 33.0154 28.4773 33.0154C30.1194 33.0154 31.4507 34.3402 31.4507 35.9738Z" fill="white"/>
<path d="M20.0525 38.9321C21.6947 38.9321 23.0259 37.6076 23.0259 35.9738C23.0259 34.3399 21.6947 33.0154 20.0525 33.0154C18.4103 33.0154 17.0791 34.3399 17.0791 35.9738C17.0791 37.6076 18.4103 38.9321 20.0525 38.9321Z" fill="white"/>
<path d="M11.6297 38.9321C13.2718 38.9321 14.6031 37.6076 14.6031 35.9738C14.6031 34.3399 13.2718 33.0154 11.6297 33.0154C9.98749 33.0154 8.65625 34.3399 8.65625 35.9738C8.65625 37.6076 9.98749 38.9321 11.6297 38.9321Z" fill="white"/>
<path d="M57.9159 36.2147L55.2055 38.9104C55.1393 38.9783 55.051 39.0096 54.9646 39.0096C54.8782 39.0096 54.7881 38.9765 54.7237 38.9104C54.5895 38.7762 54.5895 38.5612 54.7237 38.4271L57.1896 35.974L54.7237 33.521C54.5895 33.3868 54.5895 33.1718 54.7237 33.0377C54.8561 32.9054 55.0749 32.9054 55.2073 33.0377L57.9178 35.7333C58.0502 35.8656 58.0502 36.0824 57.9178 36.2147H57.9159Z" fill="white"/>
<path d="M42.2857 36.2147L44.9962 38.9104C45.0623 38.9783 45.1506 39.0096 45.237 39.0096C45.3235 39.0096 45.4136 38.9765 45.4779 38.9104C45.6122 38.7762 45.6122 38.5612 45.4779 38.4271L43.0121 35.974L45.4779 33.521C45.6122 33.3868 45.6122 33.1718 45.4779 33.0377C45.3455 32.9054 45.1267 32.9054 44.9943 33.0377L42.2839 35.7333C42.1515 35.8656 42.1515 36.0824 42.2839 36.2147H42.2857Z" fill="white"/>
<path d="M68.9637 39.0095C69.8703 39.0095 70.7216 38.6126 71.3064 37.9198C71.4186 37.7875 71.4002 37.5891 71.2678 37.4788C71.1354 37.3686 70.9368 37.387 70.8246 37.5174C70.3612 38.0668 69.6845 38.3829 68.9656 38.3829C68.3183 38.3829 67.7096 38.133 67.2518 37.6773C66.7939 37.2216 66.542 36.617 66.542 35.9721C66.542 34.6436 67.6287 33.5613 68.9656 33.5613C69.5466 33.5613 70.0983 33.7689 70.5322 34.1382L70.1608 34.5076L71.5951 34.7465L71.3285 33.3444L70.9772 33.6954C70.4237 33.2103 69.7158 32.9365 68.9656 32.9365C68.1234 32.9365 67.3602 33.2765 66.8086 33.8277C66.2569 34.379 65.9131 35.136 65.9131 35.9739C65.9131 36.7842 66.2312 37.5468 66.8068 38.1201C67.3842 38.6934 68.1491 39.0095 68.9656 39.0095H68.9637Z" fill="white"/>
<path d="M310.494 31.2754H85.8894C83.2926 31.2754 81.1875 33.3786 81.1875 35.973C81.1875 38.5674 83.2926 40.6705 85.8894 40.6705H310.494C313.091 40.6705 315.196 38.5674 315.196 35.973C315.196 33.3786 313.091 31.2754 310.494 31.2754Z" fill="white"/>
<path d="M90.5038 38.3993L88.654 36.5562C89.3104 35.7 89.2479 34.4707 88.4609 33.6897C87.6058 32.8371 86.212 32.8371 85.3569 33.6897C84.4982 34.5405 84.4982 35.926 85.3569 36.7767C86.1421 37.5595 87.3778 37.622 88.2384 36.9697L90.0919 38.8109C90.206 38.9266 90.3898 38.9266 90.5057 38.8109C90.6234 38.6969 90.6234 38.5132 90.5057 38.4011L90.5038 38.3993ZM88.0472 36.367C87.4183 36.9899 86.3959 36.9899 85.7688 36.367C85.1418 35.7404 85.1418 34.7243 85.7688 34.1013C86.3959 33.4784 87.4164 33.4784 88.0472 34.1013C88.6742 34.7243 88.6742 35.7404 88.0472 36.367Z" fill="#E0E0E0"/>
<path d="M330.813 35.0752H328.844V35.4666H330.616V38.3515H326.284V35.4666H328.057V35.0752H326.087C325.979 35.0752 325.891 35.1634 325.891 35.2718V38.5481C325.891 38.6583 325.979 38.7447 326.087 38.7447H330.813C330.924 38.7447 331.01 38.6583 331.01 38.5481V35.2718C331.01 35.1634 330.924 35.0752 330.813 35.0752Z" fill="white"/>
<path d="M329.379 34.5184H328.647V36.4735C328.647 36.5819 328.561 36.6701 328.45 36.6701C328.34 36.6701 328.253 36.5819 328.253 36.4735V34.5184H327.523L328.45 33.2046L329.379 34.5184Z" fill="white"/>
<path d="M339.03 34.9355H335.549C335.453 34.9355 335.376 35.0127 335.376 35.1083V38.572C335.376 38.6675 335.453 38.7447 335.549 38.7447H339.03C339.127 38.7447 339.203 38.6675 339.203 38.572V35.1083C339.203 35.0127 339.127 34.9355 339.03 34.9355ZM338.857 38.3992H335.722V35.281H338.857V38.3992Z" fill="white"/>
<path d="M340.773 33.2029H337.292C337.195 33.2029 337.119 33.2801 337.119 33.3756V34.7629H337.467V33.5483H340.602V36.6666H339.381V37.012H340.777C340.872 37.012 340.949 36.9367 340.949 36.8393V33.3756C340.949 33.2801 340.872 33.2029 340.777 33.2029H340.773Z" fill="white"/>
<g clip-path="url(#clip0_418_129422)">
<path d="M301.369 151.103C296.073 212.734 246.31 261.663 184.309 265.655" stroke="#EBE9F8" stroke-width="8.10725" stroke-miterlimit="10" stroke-linecap="round"/>
<path d="M188.164 254.139L187.029 253.095L185.983 254.229L176.146 264.892L175.018 266.115L176.321 267.149L187.683 276.176L188.89 277.134L189.851 275.93L191.361 274.039L192.327 272.828L191.114 271.865L183.088 265.494L190.034 257.96L191.082 256.823L189.944 255.776L188.164 254.139Z" fill="#EBE9F8" stroke="#EBE9F8" stroke-width="3.08907"/>
<path d="M185.202 14.7856C249.975 19.4184 301.321 70.9573 301.978 136.757" stroke="#EBE9F8" stroke-width="8.10725" stroke-miterlimit="10" stroke-linecap="round"/>
<path d="M291.244 129.622L290.144 130.701L291.221 131.804L300.888 141.697L302.049 142.886L303.15 141.641L312.316 131.278L313.344 130.116L312.178 129.093L310.45 127.578L309.294 126.563L308.274 127.716L301.861 134.97L295.083 128.024L294.001 126.915L292.896 128.001L291.244 129.622Z" fill="#EBE9F8" stroke="#EBE9F8" stroke-width="3.08944"/>
<path d="M151.702 115.354V95.6188C151.702 82.1849 162.689 71.1863 176.135 71.1863H177.139C190.584 71.1863 201.571 82.1849 201.571 95.6188V115.354" stroke="white" stroke-width="11.5411" stroke-miterlimit="10" stroke-linecap="round"/>
<path d="M210.816 115.354H142.47C137.842 115.354 134.091 119.106 134.091 123.733V192.079C134.091 196.707 137.842 200.458 142.47 200.458H210.816C215.443 200.458 219.195 196.707 219.195 192.079V123.733C219.195 119.106 215.443 115.354 210.816 115.354Z" fill="white"/>
<path d="M188.15 168.339C188.312 168.247 190.066 165.754 190.274 165.396C190.551 164.935 191.185 163.873 190.966 163.457L182.518 157.375L182.079 156.66C187.585 152.62 193.136 148.5 198.895 144.888V136.878C193.205 133.912 188.242 130.958 182.322 129.907C180.533 129.596 178.652 129.446 176.644 129.526V135.597C180.06 135.643 183.511 136.209 186.442 137.259C187.988 137.813 191.728 139.429 192.951 140.329C193.182 140.502 193.528 140.617 193.424 141.01L176.644 152.586V160.93C178.883 161.68 187.365 168.801 188.162 168.328L188.15 168.339Z" fill="#001FFF"/>
<path d="M194.209 150.704L193.828 151.27C193.32 155.055 194.082 159.279 193.701 163.019C193.136 168.512 182.887 177.411 178.155 179.961C177.44 180.342 177.001 180.573 176.632 180.654V186.309C176.84 186.309 177.047 186.309 177.22 186.263C181.468 185.097 190.573 177.364 193.574 173.879C194.717 172.552 198.952 166.458 198.952 165.038V147.808L194.22 150.693L194.209 150.704Z" fill="#001FFF"/>
<path d="M176.562 129.527C172.499 129.7 168.091 130.416 164.271 131.847C160.751 133.174 157.508 135.39 154.322 137.398L154.472 164.9C156.365 164.762 157.611 163.308 159.123 162.384C159.539 155.841 158.558 148.616 159.112 142.164C159.158 141.587 159.112 140.987 159.62 140.572C161.132 139.325 166.348 137.202 168.356 136.613C170.872 135.874 173.746 135.563 176.631 135.597V129.527C176.631 129.527 176.585 129.527 176.562 129.527Z" fill="#3D82F6"/>
<path d="M174.255 179.8C171.866 178.484 164.86 172.656 163.625 170.405C163.487 170.163 163.371 169.828 163.51 169.574L176.401 160.872C176.459 160.872 176.551 160.919 176.62 160.942V152.597L176.401 152.747L161.721 143.191V149.412C161.721 149.631 162.275 150.185 162.494 150.382C164.41 152.193 169.13 154.271 170.642 156.014C170.861 156.267 171 156.568 171 156.902L155.766 167.497C154.946 168.074 155.662 169.043 156.043 169.713C158.57 174.145 166.291 180.908 170.654 183.678C171.969 184.509 174.866 186.274 176.632 186.32V180.665C175.963 180.815 175.536 180.515 174.255 179.811V179.8Z" fill="#3D82F6"/>
</g>
<defs>
<linearGradient id="paint0_linear_418_129422" x1="47.5" y1="49.4999" x2="319" y2="235.5" gradientUnits="userSpaceOnUse">
<stop stop-color="#EBE9F8"/>
<stop offset="1" stop-color="#D6D1F5"/>
</linearGradient>
<clipPath id="clip0_418_129422">
<rect x="3.0957" y="1.90906" width="348.808" height="276.182" rx="6.68182" fill="white"/>
</clipPath>
</defs>
</svg>
