<svg width="40" height="47" viewBox="0 0 40 47" fill="none" xmlns="http://www.w3.org/2000/svg">
<path d="M9.9375 7.2939C9.01736 7.2939 8.23524 7.64846 7.59115 8.35759C6.94705 9.06672 6.625 9.9278 6.625 10.9408C6.625 11.9539 6.94705 12.815 7.59115 13.5241C8.23524 14.2332 9.01736 14.5878 9.9375 14.5878C10.8576 14.5878 11.6398 14.2332 12.2839 13.5241C12.928 12.815 13.25 11.9539 13.25 10.9408C13.25 9.9278 12.928 9.06672 12.2839 8.35759C11.6398 7.64846 10.8576 7.2939 9.9375 7.2939ZM9.9375 31.6069C9.01736 31.6069 8.23524 31.9615 7.59115 32.6706C6.94705 33.3797 6.625 34.2408 6.625 35.2538C6.625 36.2669 6.94705 37.128 7.59115 37.8371C8.23524 38.5462 9.01736 38.9008 9.9375 38.9008C10.8576 38.9008 11.6398 38.5462 12.2839 37.8371C12.928 37.128 13.25 36.2669 13.25 35.2538C13.25 34.2408 12.928 33.3797 12.2839 32.6706C11.6398 31.9615 10.8576 31.6069 9.9375 31.6069ZM2.20833 0H37.5417C38.1674 0 38.6918 0.232999 39.1151 0.698998C39.5384 1.165 39.75 1.74243 39.75 2.4313V19.4504C39.75 20.1393 39.5384 20.7167 39.1151 21.1827C38.6918 21.6487 38.1674 21.8817 37.5417 21.8817H2.20833C1.58264 21.8817 1.05816 21.6487 0.634896 21.1827C0.211632 20.7167 0 20.1393 0 19.4504V2.4313C0 1.74243 0.211632 1.165 0.634896 0.698998C1.05816 0.232999 1.58264 0 2.20833 0ZM4.41667 4.8626V17.0191H35.3333V4.8626H4.41667ZM2.20833 24.313H37.5417C38.1674 24.313 38.6918 24.546 39.1151 25.012C39.5384 25.478 39.75 26.0554 39.75 26.7443V43.7634C39.75 44.4522 39.5384 45.0297 39.1151 45.4957C38.6918 45.9617 38.1674 46.1947 37.5417 46.1947H2.20833C1.58264 46.1947 1.05816 45.9617 0.634896 45.4957C0.211632 45.0297 0 44.4522 0 43.7634V26.7443C0 26.0554 0.211632 25.478 0.634896 25.012C1.05816 24.546 1.58264 24.313 2.20833 24.313ZM4.41667 29.1756V41.3321H35.3333V29.1756H4.41667Z" fill="black"/>
</svg>
