<svg width="46" height="51" viewBox="0 0 46 51" fill="none" xmlns="http://www.w3.org/2000/svg">
<path d="M7.6 47.0663C6.29375 47.0663 5.17552 46.5542 4.24531 45.5301C3.3151 44.506 2.85 43.2748 2.85 41.8367V7.38679L0.653125 4.96811C0.217708 4.48873 0 3.88951 0 3.17044C0 2.45137 0.2375 1.83036 0.7125 1.3074C1.14792 0.828018 1.70208 0.588329 2.375 0.588329C3.04792 0.588329 3.60208 0.828018 4.0375 1.3074L44.4125 45.7589C44.8875 46.2818 45.1151 46.892 45.0953 47.5892C45.0755 48.2865 44.8281 48.8966 44.3531 49.4196C43.8781 49.899 43.324 50.1496 42.6906 50.1713C42.0573 50.1931 41.5031 49.9426 41.0281 49.4196L38.8906 47.0663H7.6ZM7.6 41.8367H34.1406L7.6 12.6164V41.8367ZM43.225 36.6071C42.6313 36.6071 42.087 36.3783 41.5922 35.9207C41.0974 35.4631 40.85 34.7985 40.85 33.9269V13.074H23.3938C22.7604 13.074 22.1568 12.9432 21.5828 12.6817C21.0089 12.4203 20.5042 12.0498 20.0688 11.5705L13.5969 4.44515C13.201 4.00935 12.9734 3.55176 12.9141 3.07238C12.8547 2.593 12.924 2.11362 13.1219 1.63425C13.3198 1.15487 13.5969 0.762648 13.9531 0.457589C14.3094 0.15253 14.7646 0 15.3188 0H40.85C42.1563 0 43.2745 0.512064 44.2047 1.53619C45.1349 2.56032 45.6 3.79145 45.6 5.22959V33.9923C45.6 34.8639 45.3526 35.5176 44.8578 35.9534C44.363 36.3892 43.8188 36.6071 43.225 36.6071Z" fill="black"/>
</svg>
