<svg width="41" height="37" viewBox="0 0 41 37" fill="none" xmlns="http://www.w3.org/2000/svg">
<path d="M32.4412 30.5008L34.235 32.4632C34.6108 32.9117 34.8073 33.4444 34.8244 34.0611C34.8415 34.6779 34.645 35.2105 34.235 35.659C33.825 36.1076 33.3467 36.3319 32.8 36.3319C32.2533 36.3319 31.775 36.1076 31.365 35.659L26.035 29.828C25.625 29.3795 25.42 28.8562 25.42 28.2581C25.42 27.6601 25.625 27.1368 26.035 26.6882L31.365 20.8572C31.775 20.4086 32.2533 20.1844 32.8 20.1844C33.3467 20.1844 33.825 20.4086 34.235 20.8572C34.645 21.3057 34.8415 21.8384 34.8244 22.4551C34.8073 23.0719 34.6108 23.6045 34.235 24.053L32.4412 26.0154H38.95C39.5308 26.0154 40.0177 26.2303 40.4106 26.6602C40.8035 27.09 41 27.6227 41 28.2581C41 28.8935 40.8035 29.4262 40.4106 29.856C40.0177 30.2859 39.5308 30.5008 38.95 30.5008H32.4412ZM4.1 36.1076C2.9725 36.1076 2.00729 35.6684 1.20438 34.79C0.401458 33.9116 0 32.8557 0 31.6222V24.8941C0 23.6606 0.401458 22.6046 1.20438 21.7262C2.00729 20.8478 2.9725 20.4086 4.1 20.4086H16.4C17.5275 20.4086 18.4927 20.8478 19.2956 21.7262C20.0985 22.6046 20.5 23.6606 20.5 24.8941V31.6222C20.5 32.8557 20.0985 33.9116 19.2956 34.79C18.4927 35.6684 17.5275 36.1076 16.4 36.1076H4.1ZM4.1 31.6222H16.4V24.8941H4.1V31.6222ZM8.55875 10.3165H2.05C1.46917 10.3165 0.982292 10.1015 0.589375 9.67168C0.196458 9.24182 0 8.70918 0 8.07375C0 7.43831 0.196458 6.90567 0.589375 6.47582C0.982292 6.04597 1.46917 5.83104 2.05 5.83104H8.55875L6.765 3.86867C6.38917 3.42013 6.19271 2.88749 6.17562 2.27074C6.15854 1.654 6.355 1.12135 6.765 0.672812C7.175 0.224271 7.65333 0 8.2 0C8.74667 0 9.225 0.224271 9.635 0.672812L14.965 6.50385C15.375 6.95239 15.58 7.47569 15.58 8.07375C15.58 8.6718 15.375 9.1951 14.965 9.64364L9.635 15.4747C9.225 15.9232 8.74667 16.1475 8.2 16.1475C7.65333 16.1475 7.175 15.9232 6.765 15.4747C6.355 15.0261 6.15854 14.4935 6.17562 13.8768C6.19271 13.26 6.38917 12.7274 6.765 12.2788L8.55875 10.3165ZM24.6 15.9232C23.4725 15.9232 22.5073 15.484 21.7044 14.6056C20.9015 13.7272 20.5 12.6713 20.5 11.4378V4.70969C20.5 3.4762 20.9015 2.42026 21.7044 1.54186C22.5073 0.663468 23.4725 0.224271 24.6 0.224271H36.9C38.0275 0.224271 38.9927 0.663468 39.7956 1.54186C40.5985 2.42026 41 3.4762 41 4.70969V11.4378C41 12.6713 40.5985 13.7272 39.7956 14.6056C38.9927 15.484 38.0275 15.9232 36.9 15.9232H24.6ZM24.6 11.4378H36.9V4.70969H24.6V11.4378Z" fill="black"/>
</svg>
