<svg width="49" height="43" viewBox="0 0 49 43" fill="none" xmlns="http://www.w3.org/2000/svg">
<path d="M3.675 42.9377C2.65417 42.9377 1.78646 42.5463 1.07187 41.7636C0.357292 40.9809 0 40.0304 0 38.9123C0 37.7941 0.357292 36.8436 1.07187 36.0609C1.78646 35.2782 2.65417 34.8868 3.675 34.8868H4.9V5.36721C4.9 3.89123 5.37979 2.6277 6.33938 1.57662C7.29896 0.525539 8.4525 0 9.8 0H44.1C44.7942 0 45.376 0.257179 45.8456 0.771536C46.3152 1.28589 46.55 1.92325 46.55 2.6836C46.55 3.44396 46.3152 4.08131 45.8456 4.59567C45.376 5.11003 44.7942 5.36721 44.1 5.36721H9.8V34.8868H20.825C21.8458 34.8868 22.7135 35.2782 23.4281 36.0609C24.1427 36.8436 24.5 37.7941 24.5 38.9123C24.5 40.0304 24.1427 40.9809 23.4281 41.7636C22.7135 42.5463 21.8458 42.9377 20.825 42.9377H3.675ZM31.85 42.9377C31.1558 42.9377 30.574 42.6805 30.1044 42.1661C29.6348 41.6518 29.4 41.0144 29.4 40.2541V13.418C29.4 12.6577 29.6348 12.0203 30.1044 11.506C30.574 10.9916 31.1558 10.7344 31.85 10.7344H46.55C47.2442 10.7344 47.826 10.9916 48.2956 11.506C48.7652 12.0203 49 12.6577 49 13.418V40.2541C49 41.0144 48.7652 41.6518 48.2956 42.1661C47.826 42.6805 47.2442 42.9377 46.55 42.9377H31.85ZM34.3 34.8868H44.1V16.1016H34.3V34.8868Z" fill="black"/>
</svg>
