<svg width="43" height="43" viewBox="0 0 43 43" fill="none" xmlns="http://www.w3.org/2000/svg">
<path d="M18.2917 18.0833C19.5063 18.0833 20.546 17.6509 21.4109 16.7859C22.2759 15.921 22.7083 14.8813 22.7083 13.6667C22.7083 12.4521 22.2759 11.4123 21.4109 10.5474C20.546 9.68247 19.5063 9.25001 18.2917 9.25001C17.0771 9.25001 16.0373 9.68247 15.1724 10.5474C14.3075 11.4123 13.875 12.4521 13.875 13.6667C13.875 14.8813 14.3075 15.921 15.1724 16.7859C16.0373 17.6509 17.0771 18.0833 18.2917 18.0833ZM18.2917 26.9167C19.9479 26.9167 21.503 26.567 22.9568 25.8677C24.4106 25.1684 25.6712 24.1747 26.7385 22.8865C25.4503 22.0399 24.0977 21.3958 22.6807 20.9542C21.2637 20.5125 19.8007 20.2917 18.2917 20.2917C16.7826 20.2917 15.3196 20.5125 13.9026 20.9542C12.4856 21.3958 11.133 22.0399 9.84479 22.8865C10.9122 24.1747 12.1727 25.1684 13.6266 25.8677C15.0804 26.567 16.6354 26.9167 18.2917 26.9167ZM39.4917 42.375L29.1125 31.9958C27.6035 33.1736 25.938 34.0938 24.1161 34.7563C22.2943 35.4188 20.3528 35.75 18.2917 35.75C13.3597 35.75 9.18229 34.0385 5.75938 30.6156C2.33646 27.1927 0.625 23.0153 0.625 18.0833C0.625 13.1514 2.33646 8.97396 5.75938 5.55105C9.18229 2.12813 13.3597 0.416672 18.2917 0.416672C23.2236 0.416672 27.401 2.12813 30.824 5.55105C34.2469 8.97396 35.9583 13.1514 35.9583 18.0833C35.9583 20.1445 35.6271 22.0859 34.9646 23.9078C34.3021 25.7297 33.3819 27.3951 32.2042 28.9042L42.5833 39.2833L39.4917 42.375ZM18.2917 31.3333C21.9722 31.3333 25.1007 30.0451 27.6771 27.4688C30.2535 24.8924 31.5417 21.7639 31.5417 18.0833C31.5417 14.4028 30.2535 11.2743 27.6771 8.69792C25.1007 6.12153 21.9722 4.83334 18.2917 4.83334C14.6111 4.83334 11.4826 6.12153 8.90625 8.69792C6.32986 11.2743 5.04167 14.4028 5.04167 18.0833C5.04167 21.7639 6.32986 24.8924 8.90625 27.4688C11.4826 30.0451 14.6111 31.3333 18.2917 31.3333Z" fill="black"/>
</svg>
