<svg width="45" height="53" viewBox="0 0 45 53" fill="none" xmlns="http://www.w3.org/2000/svg">
<path d="M22.5 29.1044C20.0833 29.1044 18.0208 28.2146 16.3125 26.4349C14.6042 24.6552 13.75 22.5066 13.75 19.9889C13.75 17.4713 14.6042 15.3227 16.3125 13.543C18.0208 11.7633 20.0833 10.8735 22.5 10.8735C24.9167 10.8735 26.9792 11.7633 28.6875 13.543C30.3958 15.3227 31.25 17.4713 31.25 19.9889C31.25 22.5066 30.3958 24.6552 28.6875 26.4349C26.9792 28.2146 24.9167 29.1044 22.5 29.1044ZM22.5 23.8956C23.5417 23.8956 24.4271 23.5158 25.1562 22.7561C25.8854 21.9965 26.25 21.0741 26.25 19.9889C26.25 18.9038 25.8854 17.9814 25.1562 17.2217C24.4271 16.4621 23.5417 16.0823 22.5 16.0823C21.4583 16.0823 20.5729 16.4621 19.8438 17.2217C19.1146 17.9814 18.75 18.9038 18.75 19.9889C18.75 21.0741 19.1146 21.9965 19.8438 22.7561C20.5729 23.5158 21.4583 23.8956 22.5 23.8956ZM2.375 41.0197C1.625 40.5422 1.04167 39.9128 0.625 39.1315C0.208333 38.3501 0 37.5037 0 36.5921V16.4079C0 15.4963 0.208333 14.6499 0.625 13.8686C1.04167 13.0872 1.625 12.4578 2.375 11.9803L19.875 0.781327C20.7083 0.260442 21.5833 0 22.5 0C23.4167 0 24.2917 0.260442 25.125 0.781327L42.625 11.9803C43.375 12.4578 43.9583 13.0872 44.375 13.8686C44.7917 14.6499 45 15.4963 45 16.4079V36.5921C45 37.5037 44.7917 38.3501 44.375 39.1315C43.9583 39.9128 43.375 40.5422 42.625 41.0197L25.125 52.2187C24.2917 52.7396 23.4167 53 22.5 53C21.5833 53 20.7083 52.7396 19.875 52.2187L2.375 41.0197ZM22.5 39.5221C20.9167 39.5221 19.3438 39.7174 17.7812 40.1081C16.2188 40.4988 14.7292 41.0848 13.3125 41.8661L22.5 47.7912L31.6875 41.8661C30.2708 41.0848 28.7812 40.4988 27.2188 40.1081C25.6562 39.7174 24.0833 39.5221 22.5 39.5221ZM8.5 38.8059C10.5833 37.3301 12.8125 36.2123 15.1875 35.4527C17.5625 34.6931 20 34.3133 22.5 34.3133C25 34.3133 27.4375 34.6931 29.8125 35.4527C32.1875 36.2123 34.4167 37.3301 36.5 38.8059L40 36.6572V16.4079L22.5 5.27396L5 16.4079V36.6572L8.5 38.8059Z" fill="black"/>
</svg>
