<svg width="40" height="58" viewBox="0 0 40 58" fill="none" xmlns="http://www.w3.org/2000/svg">
<path d="M5 57.2502C3.625 57.2502 2.44792 56.7163 1.46875 55.6486C0.489583 54.5808 0 53.2972 0 51.7978V24.5358C0 23.0364 0.489583 21.7528 1.46875 20.685C2.44792 19.6173 3.625 19.0834 5 19.0834H7.5V13.631C7.5 9.85976 8.71875 6.64511 11.1562 3.98707C13.5938 1.32902 16.5417 0 20 0C23.4583 0 26.4062 1.32902 28.8438 3.98707C31.2812 6.64511 32.5 9.85976 32.5 13.631V19.0834H35C36.375 19.0834 37.5521 19.6173 38.5312 20.685C39.5104 21.7528 40 23.0364 40 24.5358V51.7978C40 53.2972 39.5104 54.5808 38.5312 55.6486C37.5521 56.7163 36.375 57.2502 35 57.2502H5ZM5 51.7978H35V24.5358H5V51.7978ZM20 43.6192C21.375 43.6192 22.5521 43.0853 23.5312 42.0176C24.5104 40.9498 25 39.6662 25 38.1668C25 36.6674 24.5104 35.3838 23.5312 34.316C22.5521 33.2483 21.375 32.7144 20 32.7144C18.625 32.7144 17.4479 33.2483 16.4688 34.316C15.4896 35.3838 15 36.6674 15 38.1668C15 39.6662 15.4896 40.9498 16.4688 42.0176C17.4479 43.0853 18.625 43.6192 20 43.6192ZM12.5 19.0834H27.5V13.631C27.5 11.3592 26.7708 9.42811 25.3125 7.83783C23.8542 6.24754 22.0833 5.4524 20 5.4524C17.9167 5.4524 16.1458 6.24754 14.6875 7.83783C13.2292 9.42811 12.5 11.3592 12.5 13.631V19.0834Z" fill="black"/>
</svg>
