<svg width="43" height="41" viewBox="0 0 43 41" fill="none" xmlns="http://www.w3.org/2000/svg">
<path d="M15.8856 40.9167L15.0689 34.3833C14.6266 34.2132 14.2097 34.009 13.8184 33.7708C13.4271 33.5326 13.0443 33.2774 12.67 33.0052L6.59603 35.5573L0.981445 25.8594L6.23874 21.8781C6.20471 21.6399 6.1877 21.4102 6.1877 21.1891V19.8109C6.1877 19.5898 6.20471 19.3601 6.23874 19.1219L0.981445 15.1406L6.59603 5.44271L12.67 7.99479C13.0443 7.72257 13.4356 7.46736 13.8439 7.22917C14.2523 6.99097 14.6606 6.7868 15.0689 6.61667L15.8856 0.0833321H27.1148L27.9314 6.61667C28.3738 6.7868 28.7906 6.99097 29.182 7.22917C29.5733 7.46736 29.9561 7.72257 30.3304 7.99479L36.4044 5.44271L42.0189 15.1406L36.7617 19.1219C36.7957 19.3601 36.8127 19.5898 36.8127 19.8109V21.1891C36.8127 21.4102 36.7787 21.6399 36.7106 21.8781L41.9679 25.8594L36.3533 35.5573L30.3304 33.0052C29.9561 33.2774 29.5648 33.5326 29.1564 33.7708C28.7481 34.009 28.3398 34.2132 27.9314 34.3833L27.1148 40.9167H15.8856ZM19.4585 36.8333H23.4908L24.2054 31.4229C25.2603 31.1507 26.2386 30.7509 27.1403 30.2234C28.042 29.696 28.8672 29.058 29.6158 28.3094L34.6689 30.4021L36.6596 26.9312L32.27 23.6135C32.4401 23.1372 32.5592 22.6352 32.6273 22.1078C32.6953 21.5804 32.7294 21.0444 32.7294 20.5C32.7294 19.9556 32.6953 19.4196 32.6273 18.8922C32.5592 18.3648 32.4401 17.8628 32.27 17.3865L36.6596 14.0687L34.6689 10.5979L29.6158 12.7417C28.8672 11.959 28.042 11.304 27.1403 10.7766C26.2386 10.2491 25.2603 9.8493 24.2054 9.57708L23.5419 4.16667H19.5096L18.795 9.57708C17.7401 9.8493 16.7618 10.2491 15.8601 10.7766C14.9584 11.304 14.1332 11.942 13.3846 12.6906L8.33145 10.5979L6.34082 14.0687L10.7304 17.3354C10.5603 17.8458 10.4412 18.3562 10.3731 18.8667C10.3051 19.3771 10.271 19.9215 10.271 20.5C10.271 21.0444 10.3051 21.5719 10.3731 22.0823C10.4412 22.5927 10.5603 23.1031 10.7304 23.6135L6.34082 26.9312L8.33145 30.4021L13.3846 28.2583C14.1332 29.041 14.9584 29.696 15.8601 30.2234C16.7618 30.7509 17.7401 31.1507 18.795 31.4229L19.4585 36.8333ZM21.6023 27.6458C23.5759 27.6458 25.2603 26.9483 26.6554 25.5531C28.0505 24.158 28.7481 22.4736 28.7481 20.5C28.7481 18.5264 28.0505 16.842 26.6554 15.4469C25.2603 14.0517 23.5759 13.3542 21.6023 13.3542C19.5946 13.3542 17.9018 14.0517 16.5236 15.4469C15.1455 16.842 14.4564 18.5264 14.4564 20.5C14.4564 22.4736 15.1455 24.158 16.5236 25.5531C17.9018 26.9483 19.5946 27.6458 21.6023 27.6458Z" fill="black"/>
</svg>
