<svg width="64" height="35" viewBox="0 0 64 35" fill="none" xmlns="http://www.w3.org/2000/svg">
<path d="M17.542 23.0833C16.0066 23.0833 14.6922 22.5366 13.5988 21.4432C12.5054 20.3498 11.9587 19.0354 11.9587 17.5C11.9587 15.9646 12.5054 14.6502 13.5988 13.5568C14.6922 12.4634 16.0066 11.9167 17.542 11.9167C19.0774 11.9167 20.3918 12.4634 21.4852 13.5568C22.5786 14.6502 23.1253 15.9646 23.1253 17.5C23.1253 19.0354 22.5786 20.3498 21.4852 21.4432C20.3918 22.5366 19.0774 23.0833 17.542 23.0833ZM17.542 34.25C12.8892 34.25 8.93435 32.6215 5.67741 29.3646C2.42046 26.1076 0.791992 22.1528 0.791992 17.5C0.791992 12.8472 2.42046 8.89236 5.67741 5.63542C8.93435 2.37847 12.8892 0.75 17.542 0.75C20.6594 0.75 23.4859 1.51771 26.0217 3.05312C28.5574 4.58854 30.5698 6.6125 32.0587 9.125H55.4389C55.8111 9.125 56.1717 9.19479 56.5206 9.33438C56.8696 9.47396 57.1837 9.68333 57.4628 9.9625L63.0462 15.5458C63.3253 15.825 63.5231 16.1274 63.6394 16.4531C63.7557 16.7788 63.8139 17.1278 63.8139 17.5C63.8139 17.8722 63.7557 18.2212 63.6394 18.5469C63.5231 18.8726 63.3253 19.175 63.0462 19.4542L54.1826 28.3177C53.95 28.5503 53.6708 28.7365 53.3451 28.876C53.0194 29.0156 52.6937 29.1087 52.368 29.1552C52.0423 29.2017 51.7166 29.1785 51.3909 29.0854C51.0653 28.9924 50.7628 28.8295 50.4837 28.5969L46.8545 25.875L42.8764 28.876C42.6437 29.0622 42.3878 29.2017 42.1087 29.2948C41.8295 29.3878 41.5503 29.4344 41.2712 29.4344C40.992 29.4344 40.7012 29.3878 40.3988 29.2948C40.0963 29.2017 39.8288 29.0622 39.5962 28.876L35.3389 25.875H32.0587C30.5698 28.3875 28.5574 30.4115 26.0217 31.9469C23.4859 33.4823 20.6594 34.25 17.542 34.25ZM17.542 28.6667C20.1475 28.6667 22.439 27.8757 24.4165 26.2938C26.3939 24.7118 27.7083 22.7111 28.3597 20.2917H37.0837L41.1316 23.1531L46.8545 18.8958L51.8097 22.7344L57.0441 17.5L54.2524 14.7083H28.3597C27.7083 12.2889 26.3939 10.2882 24.4165 8.70625C22.439 7.12431 20.1475 6.33333 17.542 6.33333C14.4712 6.33333 11.8423 7.42674 9.65553 9.61354C7.46873 11.8003 6.37533 14.4292 6.37533 17.5C6.37533 20.5708 7.46873 23.1997 9.65553 25.3865C11.8423 27.5733 14.4712 28.6667 17.542 28.6667Z" fill="black"/>
</svg>
