<svg width="45" height="25" viewBox="0 0 45 25" fill="none" xmlns="http://www.w3.org/2000/svg">
<path d="M2.08317 24.7917V20.7083H42.9165V24.7917H2.08317ZM4.43109 12.4396L1.77692 10.9083L3.51234 7.84583H0.0415039V4.78333H3.51234L1.77692 1.82292L4.43109 0.291668L6.1665 3.25208L7.90192 0.291668L10.5561 1.82292L8.82067 4.78333H12.2915V7.84583H8.82067L10.5561 10.9083L7.90192 12.4396L6.1665 9.37708L4.43109 12.4396ZM20.7644 12.4396L18.1103 10.9083L19.8457 7.84583H16.3748V4.78333H19.8457L18.1103 1.82292L20.7644 0.291668L22.4998 3.25208L24.2353 0.291668L26.8894 1.82292L25.154 4.78333H28.6248V7.84583H25.154L26.8894 10.9083L24.2353 12.4396L22.4998 9.37708L20.7644 12.4396ZM37.0978 12.4396L34.4436 10.9083L36.179 7.84583H32.7082V4.78333H36.179L34.4436 1.82292L37.0978 0.291668L38.8332 3.25208L40.5686 0.291668L43.2228 1.82292L41.4873 4.78333H44.9582V7.84583H41.4873L43.2228 10.9083L40.5686 12.4396L38.8332 9.37708L37.0978 12.4396Z" fill="black"/>
</svg>
