<svg width="21" height="20" viewBox="0 0 21 20" fill="none" xmlns="http://www.w3.org/2000/svg">
<g clip-path="url(#clip0_418_128981)">
<path d="M20.3525 0H0.647515C0.289902 0 0 0.291197 0 0.650406V19.3496C0 19.7088 0.289902 20 0.647515 20H20.3525C20.7101 20 21 19.7088 21 19.3496V0.650406C21 0.291197 20.7101 0 20.3525 0Z" fill="#818181"/>
<path d="M11.3103 8.9982C11.7673 8.39224 12.3506 7.88438 13.085 7.65078C15.5159 6.87896 17.7444 8.48167 17.7326 11.0426L17.7315 17.5071H14.7502L14.7098 17.4665V11.8296C14.7098 11.8036 14.6353 11.4817 14.6213 11.4307C14.3585 10.4616 13.6252 10.0968 12.6577 10.2838C11.7274 10.4638 11.3562 11.3093 11.3092 12.1814L11.3103 17.5077H8.39648V7.77869H11.3103V8.9982Z" fill="white"/>
<path d="M6.53309 7.77826H3.48438V17.5073H6.53309V7.77826Z" fill="white"/>
<path d="M4.99425 6.52893C5.98454 6.52893 6.78733 5.72255 6.78733 4.72784C6.78733 3.73313 5.98454 2.92676 4.99425 2.92676C4.00396 2.92676 3.20117 3.73313 3.20117 4.72784C3.20117 5.72255 4.00396 6.52893 4.99425 6.52893Z" fill="white"/>
</g>
<defs>
<clipPath id="clip0_418_128981">
<rect width="21" height="20" fill="white"/>
</clipPath>
</defs>
</svg>
